<svg xmlns="http://www.w3.org/2000/svg" xmlns:xlink="http://www.w3.org/1999/xlink" version="1.1" id="Layer_1" x="0px" y="0px" viewBox="0 0 512 512" style="enable-background:new 0 0 512 512;" xml:space="preserve">
<g>
	<path d="M307.2,102.4h25.6c-0.02-42.43-34.37-76.78-76.8-76.8c-42.43,0.02-76.78,34.37-76.8,76.8c0.02,42.43,34.37,76.78,76.8,76.8   c42.43-0.02,76.78-34.37,76.8-76.8H307.2h-25.6c-0.03,14.13-11.47,25.57-25.6,25.6c-14.13-0.03-25.57-11.47-25.6-25.6   c0.03-14.13,11.47-25.57,25.6-25.6c14.13,0.03,25.57,11.47,25.6,25.6H307.2z" fill="#000000"/>
	<path d="M128,307.2h25.6c-0.02-42.43-34.37-76.78-76.8-76.8C34.37,230.42,0.02,264.77,0,307.2c0.02,42.43,34.37,76.78,76.8,76.8   c42.43-0.02,76.78-34.37,76.8-76.8H128h-25.6c-0.03,14.13-11.47,25.57-25.6,25.6c-14.13-0.03-25.57-11.47-25.6-25.6   c0.03-14.13,11.47-25.57,25.6-25.6c14.13,0.03,25.57,11.47,25.6,25.6H128z" fill="#000000"/>
	<path d="M486.4,307.2H512c-0.02-42.43-34.37-76.78-76.8-76.8c-42.43,0.02-76.78,34.37-76.8,76.8c0.02,42.43,34.37,76.78,76.8,76.8   c42.43-0.02,76.78-34.37,76.8-76.8H486.4h-25.6c-0.03,14.13-11.47,25.57-25.6,25.6c-14.13-0.03-25.57-11.47-25.6-25.6   c0.03-14.13,11.47-25.57,25.6-25.6c14.13,0.03,25.57,11.47,25.6,25.6H486.4z" fill="#000000"/>
	<path d="M307.2,409.6h25.6c-0.02-42.43-34.37-76.78-76.8-76.8c-42.43,0.02-76.78,34.37-76.8,76.8c0.02,42.43,34.37,76.78,76.8,76.8   c42.43-0.02,76.78-34.37,76.8-76.8H307.2h-25.6c-0.03,14.13-11.47,25.57-25.6,25.6c-14.13-0.03-25.57-11.47-25.6-25.6   c0.03-14.13,11.47-25.57,25.6-25.6c14.13,0.03,25.57,11.47,25.6,25.6H307.2z" fill="#000000"/>
	<path d="M230.4,153.6v204.8c0,14.14,11.46,25.6,25.6,25.6c14.14,0,25.6-11.46,25.6-25.6V153.6c0-14.14-11.46-25.6-25.6-25.6   C241.86,128,230.4,139.46,230.4,153.6" fill="#000000"/>
	<path d="M129.76,285.56l111.82-127.8c9.31-10.64,8.23-26.81-2.41-36.12c-10.64-9.31-26.81-8.23-36.12,2.41L91.22,251.84   c-9.31,10.64-8.23,26.81,2.41,36.12C104.27,297.27,120.45,296.2,129.76,285.56" fill="#000000"/>
	<path d="M420.78,251.84L309.01,124.1c-9.31-10.64-25.48-11.72-36.12-2.41s-11.72,25.48-2.41,36.12l111.77,127.74   c9.31,10.64,25.48,11.72,36.12,2.41C429.01,278.65,430.09,262.48,420.78,251.84" fill="#000000"/>
</g>
</svg>